0
SECTION
2
HEADER
9
$INSUNITS
70
4
9
$ACADVER
1
AC1014
9
$HANDSEED
5
FFFF
0
ENDSEC
0
SECTION
2
TABLES
0
TABLE
2
VPORT
5
8
100
AcDbSymbolTable
0
ENDTAB
0
TABLE
2
LTYPE
5
5
100
AcDbSymbolTable
0
LTYPE
5
14
100
AcDbSymbolTableRecord
100
AcDbLinetypeTableRecord
2
BYBLOCK
70
0
0
LTYPE
5
15
100
AcDbSymbolTableRecord
100
AcDbLinetypeTableRecord
2
BYLAYER
70
0
0
ENDTAB
0
TABLE
2
LAYER
5
2
100
AcDbSymbolTable
70
2
0
LAYER
5
50
100
AcDbSymbolTableRecord
100
AcDbLayerTableRecord
2
0
70
0
6
CONTINUOUS
0
ENDTAB
0
TABLE
2
STYLE
5
3
100
AcDbSymbolTable
70
1
0
STYLE
5
11
100
AcDbSymbolTableRecord
100
AcDbTextStyleTableRecord
2
STANDARD
70
0
0
ENDTAB
0
TABLE
2
VIEW
5
6
100
AcDbSymbolTable
70
0
0
ENDTAB
0
TABLE
2
UCS
5
7
100
AcDbSymbolTable
70
0
0
ENDTAB
0
TABLE
2
APPID
5
9
100
AcDbSymbolTable
70
2
0
APPID
5
12
100
AcDbSymbolTableRecord
100
AcDbRegAppTableRecord
2
ACAD
70
0
0
ENDTAB
0
TABLE
2
DIMSTYLE
5
A
100
AcDbSymbolTable
70
1
0
ENDTAB
0
TABLE
2
BLOCK_RECORD
5
1
100
AcDbSymbolTable
70
1
0
BLOCK_RECORD
5
1F
100
AcDbSymbolTableRecord
100
AcDbBlockTableRecord
2
*MODEL_SPACE
0
BLOCK_RECORD
5
1B
100
AcDbSymbolTableRecord
100
AcDbBlockTableRecord
2
*PAPER_SPACE
0
ENDTAB
0
ENDSEC
0
SECTION
2
BLOCKS
0
BLOCK
5
20
100
AcDbEntity
100
AcDbBlockBegin
2
*MODEL_SPACE
0
ENDBLK
5
21
100
AcDbEntity
100
AcDbBlockEnd
0
BLOCK
5
1C
100
AcDbEntity
100
AcDbBlockBegin
2
*PAPER_SPACE
0
ENDBLK
5
1D
100
AcDbEntity
100
AcDbBlockEnd
0
ENDSEC
0
SECTION
2
ENTITIES
0
CIRCLE
5
100
100
AcDbEntity
8
0
100
AcDbCircle
10
13.741730544434461
20
37.6709499854759
30
0
40
1.4999999999999993
210
-1.2325951644078309e-32
220
-4.6222318665293647e-33
230
1
0
LWPOLYLINE
5
101
100
AcDbEntity
8
0
100
AcDbPolyline
90
8
70
1
43
0.0
10
29.947954144831318
20
63.000000000000028
10
109.10000100582849
20
94.910630006589514
10
109.10000100582842
20
98.200000000000017
10
28.315184605393764
20
98.200000000000045
10
12.641742017113666
20
42.793005267369224
10
-67.5
20
5.4222972268725833
10
-67.499999999999986
20
3.2000000000000002
10
29.947954144831293
20
3.1999999999999966
0
LWPOLYLINE
5
102
100
AcDbEntity
8
0
100
AcDbPolyline
90
4
70
1
43
0.0
10
-5.9067376611181359
20
14.801683317435888
10
12.285650494307403
20
14.801683317436359
10
12.285650494307401
20
8.7310186784327843
10
-5.9067376611181288
20
8.7310186784331201
0
CIRCLE
5
103
100
AcDbEntity
8
0
100
AcDbCircle
10
25.418221719942409
20
9.3706651234311256
30
0
40
1.7499999999999982
210
-1.2325951644078312e-32
220
-4.6222251682384097e-33
230
1
0
LWPOLYLINE
5
104
100
AcDbEntity
8
0
100
AcDbPolyline
90
4
70
1
43
0.0
10
19.241730544434642
20
39.670949985475971
10
27.241730544434411
20
39.670949985475971
10
27.241730544434407
20
21.670949985475833
10
19.241730544434638
20
21.670949985475836
0
CIRCLE
5
105
100
AcDbEntity
8
0
100
AcDbCircle
10
13.741730544434461
20
37.6709499854759
30
0
40
0.099999999999999617
210
0
220
0
230
1
0
CIRCLE
5
106
100
AcDbEntity
8
0
100
AcDbCircle
10
25.418221719942409
20
9.3706651234311256
30
0
40
0.10000000000000021
210
0
220
0
230
1
0
CIRCLE
5
107
100
AcDbEntity
8
0
100
AcDbCircle
10
23.241730544434414
20
35.670949985476199
30
0
40
3.9999999999997726
210
0
220
0
230
1
0
CIRCLE
5
108
100
AcDbEntity
8
0
100
AcDbCircle
10
23.241730544434411
20
25.670949985475616
30
0
40
3.9999999999997748
210
0
220
0
230
1
0
CIRCLE
5
109
100
AcDbEntity
8
0
100
AcDbCircle
10
23.241730544434414
20
35.670949985476199
30
0
40
0.10000000000000167
210
0
220
0
230
1
0
CIRCLE
5
110
100
AcDbEntity
8
0
100
AcDbCircle
10
23.241730544434411
20
25.670949985475616
30
0
40
0.099999999999998812
210
0
220
0
230
1
0
CIRCLE
5
111
100
AcDbEntity
8
0
100
AcDbCircle
10
9.2503181748056473
20
11.766350997934598
30
0
40
3.035332319501757
210
0
220
0
230
1
0
CIRCLE
5
112
100
AcDbEntity
8
0
100
AcDbCircle
10
9.2503181748056473
20
11.766350997934598
30
0
40
0.099999999999999131
210
0
220
0
230
1
0
CIRCLE
5
113
100
AcDbEntity
8
0
100
AcDbCircle
10
3.1903181748056477
20
11.766350997934598
30
0
40
3.035332319501757
210
0
220
0
230
1
0
CIRCLE
5
114
100
AcDbEntity
8
0
100
AcDbCircle
10
3.1903181748056477
20
11.766350997934598
30
0
40
0.099999999999999131
210
0
220
0
230
1
0
CIRCLE
5
115
100
AcDbEntity
8
0
100
AcDbCircle
10
-2.8696818251943523
20
11.766350997934598
30
0
40
3.035332319501757
210
0
220
0
230
1
0
CIRCLE
5
116
100
AcDbEntity
8
0
100
AcDbCircle
10
-2.8696818251943523
20
11.766350997934598
30
0
40
0.099999999999999131
210
0
220
0
230
1
0
ENDSEC
0
SECTION
2
OBJECTS
0
DICTIONARY
5
C
100
AcDbDictionary
3
ACAD_GROUP
350
D
3
ACAD_MLINESTYLE
350
17
0
DICTIONARY
5
D
100
AcDbDictionary
0
DICTIONARY
5
1A
330
C
100
AcDbDictionary
0
DICTIONARY
5
17
100
AcDbDictionary
0
ENDSEC
0
EOF
